# xmcd
#
# Track frame offsets: 
#        150
#        23665
#        36237
#        51527
#        71910
#        88215
#        108810
#        119815
#        130380
#        144930
#        154200
#        172170
#        190660
#        203920
#        216207
#        229222
#
# Disc length: 3261 seconds
#
# Revision: 2
# Processed by: cddbd v1.4PL0 Copyright (c) Steve Scherf et al.
# Submitted via: ExactAudioCopy v0.90b4
#
DISCID=f60cbb10
DTITLE=Red Sovine - Sixteen Greatest Hits
DYEAR=1900
DGENRE=Country
TTITLE0=Teddy Bear
TTITLE1=I Didn't Jump The Fence
TTITLE2=It'll Come Back
TTITLE3=Little Joe
TTITLE4=Daddy's Girl
TTITLE5=Daddy
TTITLE6=I Know You're Married
TTITLE7=Love Is
TTITLE8=19 Wheels Hummin'
TTITLE9=Truck Drivin' Son Of A Gun
TTITLE10=Little Rosa
TTITLE11=Giddy-Up-Go
TTITLE12=Ole Rivers
TTITLE13=Days Of You And Me
TTITLE14=Colorado Kool Aid
TTITLE15=Phanton 309
EXTD=
EXTT0=
EXTT1=
EXTT2=
EXTT3=
EXTT4=
EXTT5=
EXTT6=
EXTT7=
EXTT8=
EXTT9=
EXTT10=
EXTT11=
EXTT12=
EXTT13=
EXTT14=
EXTT15=
PLAYORDER=
